# Blender v2.78 (sub 0) OBJ File: ''
# www.blender.org
mtllib Chair.mtl
v 13.016618 5.358734 -6.540009
v 13.016618 5.358734 -6.540009
v 14.699576 4.022100 -6.530530
v 14.672098 5.187153 -6.254415
v 14.672098 5.187153 -6.254415
v 14.777687 3.994603 6.609790
v 14.777687 3.994603 6.609790
v 13.094703 5.331193 6.600279
v 13.527826 6.101424 6.307891
v -5.261729 5.324130 6.616963
v -4.813231 6.094345 6.324561
v -5.339839 5.351644 -6.523359
v -4.887914 6.120647 -6.244463
v 13.016618 5.358734 -6.540009
v 13.453083 6.127733 -6.261065
v 14.672098 5.187153 -6.254415
v 14.672098 5.187153 -6.254415
v 13.527826 6.101424 6.307891
v 13.527826 6.101424 6.307891
v 14.746772 5.160860 6.314543
v 14.777687 3.994603 6.609790
v 14.777687 3.994603 6.609790
v -5.354483 6.351297 -6.245924
v -5.354483 6.351297 -6.245924
v -5.451580 5.474789 -6.524278
v -13.939516 16.155119 -6.318802
v -14.564602 15.684351 -6.600037
v -13.864849 16.128838 6.250188
v -14.486516 15.656842 6.540286
v -5.279825 6.325003 6.323066
v -5.373529 5.447259 6.616043
v -5.373529 5.447259 6.616043
v 14.746772 5.160860 6.314543
v 14.746772 5.160860 6.314543
v 14.672098 5.187153 -6.254415
v 14.777687 3.994603 6.609790
v 14.699576 4.022100 -6.530530
v 14.699576 4.022100 -6.530530
v 14.672098 5.187153 -6.254415
v 14.672098 5.187153 -6.254415
v 14.746772 5.160860 6.314543
v 13.453083 6.127733 -6.261065
v 13.527826 6.101424 6.307891
v 13.527826 6.101424 6.307891
v -5.279825 6.325003 6.323066
v -5.279825 6.325003 6.323066
v -5.354483 6.351297 -6.245924
v -5.373529 5.447259 6.616043
v -5.451580 5.474789 -6.524278
v -5.451580 5.474789 -6.524278
v 13.453083 6.127733 -6.261065
v 13.453083 6.127733 -6.261065
v 13.527826 6.101424 6.307891
v -4.887914 6.120647 -6.244463
v -4.813231 6.094345 6.324561
v -4.813231 6.094345 6.324561
v -5.354483 6.351297 -6.245924
v -5.354483 6.351297 -6.245924
v -5.279825 6.325003 6.323066
v -13.939516 16.155119 -6.318802
v -13.864849 16.128838 6.250188
v -13.864849 16.128838 6.250188
v -14.011065 14.917665 5.617572
v -14.011065 14.917665 5.617572
v -14.483524 14.312998 5.622941
v -14.077261 14.940976 -5.523171
v -14.077261 14.940976 -5.523171
v -14.077261 14.940976 -5.523171
v -14.077261 14.940976 -5.523171
v -14.549780 14.336336 -5.517737
v -14.483524 14.312998 5.622941
v -14.041619 14.336547 -5.518217
v -13.975355 14.313207 5.622495
v -13.975355 14.313207 5.622495
v -15.269972 5.853119 -5.475892
v -15.269972 5.853119 -5.475892
v -15.203588 5.829750 5.693389
v -15.778166 5.852911 -5.475446
v -15.711782 5.829553 5.693835
v -15.328496 6.299764 -5.472197
v -15.262129 6.276379 5.689765
v -15.262129 6.276379 5.689765
v -14.683550 3.882792 5.896080
v -14.683550 3.882792 5.896080
v 13.251575 3.893589 5.870778
v -14.875379 4.270744 5.634521
v 13.306122 4.281641 5.608954
v -14.686173 3.883699 5.455840
v 13.248950 3.894502 5.430539
v 13.248950 3.894502 5.430539
v 13.182336 3.917989 -5.787049
v 13.182336 3.917989 -5.787049
v -14.752830 3.907189 -5.761748
v 13.239984 4.304950 -5.531723
v -14.941634 4.294078 -5.506258
v 13.185051 3.917003 -5.319214
v -14.750031 3.906207 -5.293847
v -14.750031 3.906207 -5.293847
v -14.444510 15.597917 -5.599624
v -14.444510 15.597917 -5.599624
v -13.872907 15.597700 -5.390680
v -15.857816 5.836331 -5.518050
v -15.286193 5.836105 -5.309140
v -14.562292 -0.021387 -5.471057
v -14.167729 0.453295 -5.265908
v -4.114741 -0.017347 -5.480466
v -4.426106 0.457061 -5.274708
v -1.251087 5.839474 -5.531235
v -1.692640 5.838838 -5.321457
v -1.692640 5.838838 -5.321457
v -1.251087 5.839474 -5.531235
v -1.251087 5.839474 -5.531235
v -1.695475 5.839847 -5.790904
v -4.114741 -0.017347 -5.480466
v -4.428849 0.458029 -5.744119
v -14.562292 -0.021387 -5.471057
v -14.170547 0.454287 -5.735320
v -15.857816 5.836331 -5.518050
v -15.288995 5.837096 -5.778619
v -14.444510 15.597917 -5.599624
v -13.875681 15.598650 -5.860125
v -13.875681 15.598650 -5.860125
v 13.484806 5.504514 5.858718
v 13.484806 5.504514 5.858718
v 13.759010 5.505687 5.360544
v 12.832161 0.996463 5.896400
v 13.141376 1.239159 5.396163
v 12.679180 -0.033472 5.286422
v 13.036176 0.533736 4.913074
v 12.617007 -0.011579 -5.170432
v 12.978251 0.554132 -4.825175
v 12.765587 1.039501 -5.764843
v 13.080168 1.280298 -5.359892
v 13.415462 5.528292 -5.802365
v 13.695023 5.527557 -5.395352
v 13.695023 5.527557 -5.395352
v 13.415462 5.528292 -5.802365
v 13.415462 5.528292 -5.802365
v 13.140678 5.527310 -5.394865
v 12.765587 1.039501 -5.764843
v 12.525707 1.280089 -5.359403
v 12.617007 -0.011579 -5.170432
v 12.423875 0.553930 -4.824653
v 12.679180 -0.033472 5.286422
v 12.481782 0.533527 4.913563
v 12.832161 0.996463 5.896400
v 12.586957 1.238969 5.396685
v 13.484806 5.504514 5.858718
v 13.204658 5.505455 5.360999
v 13.204658 5.505455 5.360999
v -13.809012 15.575181 5.356019
v -13.809012 15.575181 5.356019
v -14.378365 15.574586 5.541055
v -15.222259 5.813618 5.437593
v -15.791594 5.812999 5.622629
v -14.103845 0.430791 5.480891
v -14.496078 -0.044722 5.669621
v -4.362231 0.434550 5.472024
v -4.048512 -0.040685 5.660213
v -1.628739 5.816342 5.425308
v -1.184907 5.816116 5.609409
v -1.184907 5.816116 5.609409
v -14.378365 15.574586 5.541055
v -14.378365 15.574586 5.541055
v -13.806399 15.574273 5.799212
v -15.791594 5.812999 5.622629
v -15.219637 5.812683 5.880854
v -14.496078 -0.044722 5.669621
v -14.101248 0.429892 5.924085
v -4.048512 -0.040685 5.660213
v -4.359607 0.433642 5.915219
v -1.184907 5.816116 5.609409
v -1.626175 5.815419 5.868501
v -1.626175 5.815419 5.868501
vt 2.0000 0.9725
vt 0.0000 0.9725
vt 2.0000 0.9725
vt 0.9971 0.6628
vt 0.0031 0.9725
vt 0.9971 0.9725
vt 0.0031 0.6628
vt -0.0039 0.6628
vt -0.0039 0.6628
vt 2.0000 0.6628
vt 0.0000 0.5098
vt 0.0000 0.5098
vt 2.0000 0.5098
vt 0.0031 0.9725
vt 0.9971 0.5098
vt 0.0031 0.5098
vt 0.9971 0.9725
vt 2.0000 0.9725
vt 2.0000 0.9725
vt 0.0000 0.9725
vt 2.0000 0.9725
vt 2.0000 0.9725
vt 0.0000 0.9725
vt 0.9971 0.6628
vt 0.0031 0.9725
vt 0.9971 0.9725
vt 0.0031 0.6628
vt -0.0039 0.6628
vt 2.0000 0.6628
vt -0.0039 0.6628
vt 0.0039 0.0078
vt 1.9843 0.0078
vt 0.0039 0.0078
vt 0.0039 2.9725
vt 0.9970 0.0078
vt 0.9970 2.9765
vt 1.9843 2.9765
vt 1.9843 2.9765
vt 0.0039 0.0078
vt 0.0039 0.0078
vt 1.9843 0.0118
vt 0.0039 1.9804
vt 0.9970 0.0118
vt 0.9970 1.9804
vt 1.9843 1.9804
vt 1.9843 1.9804
vt 0.2104 0.7633
vt 0.1661 0.2508
vt 0.2104 0.7633
vt 0.2104 0.7633
vt 0.2104 0.7633
vt 0.2104 0.7633
vt 0.2104 0.7633
vt 0.1661 0.2508
vt 0.1661 0.2508
vt 0.4769 0.0033
vt 0.4769 0.0033
vt 0.4769 0.0033
vt 0.4769 0.0033
vt 0.4769 0.0033
vt 0.4769 0.0033
vt 0.1572 0.2784
vt 0.1559 0.2829
vt 0.2463 0.8220
vt 0.2463 0.8220
vt 0.2463 0.8220
vt 0.7842 0.7593
vt 0.7842 0.7593
vt 0.7842 0.7593
vt 0.5070 0.9987
vt 0.4959 0.9995
vt 0.2114 0.7830
vt 0.2114 0.7830
vt 0.2114 0.7830
vt 0.2440 0.8450
vt 0.2440 0.8450
vt 0.2440 0.8450
vt 0.5399 0.9934
vt 0.5332 0.9949
vt 0.8013 0.7160
vt 0.8013 0.7160
vt 0.8013 0.7160
vt 0.1482 0.4790
vt 0.6818 0.4429
vt 0.1482 0.4790
vt 0.1487 0.3965
vt 0.6730 0.4034
vt 0.2865 0.0764
vt 0.7370 0.2923
vt 0.7152 0.1156
vt 0.8809 0.2940
vt 0.8454 0.3411
vt 0.9514 0.3808
vt 0.9514 0.3808
vt 0.8454 0.3411
vt 0.8454 0.3411
vt 0.3823 0.4669
vt 0.7152 0.1156
vt 0.2767 0.3638
vt 0.2865 0.0764
vt 0.0989 0.3601
vt 0.1487 0.3965
vt 0.0305 0.4923
vt 0.1482 0.4790
vt 0.0334 0.5402
vt 0.0334 0.5402
vt 0.8403 0.4460
vt 0.9810 0.4919
vt 0.8403 0.4460
vt 0.8150 0.2898
vt 0.9649 0.4321
vt 0.6447 0.0393
vt 0.8771 0.3216
vt 0.3148 0.0925
vt 0.7684 0.3326
vt 0.1711 0.3908
vt 0.6662 0.4730
vt 0.1597 0.5540
vt 0.6275 0.5447
vt 0.6275 0.5447
vt 0.1597 0.5540
vt 0.1597 0.5540
vt 0.0092 0.5129
vt 0.1711 0.3908
vt 0.0180 0.4512
vt 0.3148 0.0925
vt 0.0975 0.3083
vt 0.6447 0.0393
vt 0.2114 0.2914
vt 0.8150 0.2898
vt 0.3047 0.4031
vt 0.8403 0.4460
vt 0.3312 0.4585
vt 0.3312 0.4585
vt 0.0583 0.5448
vt 0.1147 0.4844
vt 0.0583 0.5448
vt 0.0549 0.5086
vt 0.1171 0.4017
vt 0.1077 0.4099
vt 0.2613 0.0806
vt 0.2395 0.4124
vt 0.6869 0.1200
vt 0.3195 0.4892
vt 0.8167 0.3447
vt 0.8167 0.3447
vt 0.1147 0.4844
vt 0.6451 0.4432
vt 0.1147 0.4844
vt 0.1171 0.4017
vt 0.6348 0.3967
vt 0.2613 0.0806
vt 0.7106 0.2638
vt 0.6869 0.1200
vt 0.8825 0.2663
vt 0.8167 0.3447
vt 0.9629 0.3705
vt 0.9629 0.3705
vt 0.2261 0.7270
vt 0.6608 0.6807
vt 0.2261 0.7270
vt 0.6061 0.7997
vt 0.6061 0.7997
vt 0.9702 0.6319
vt 0.9702 0.6319
vt 0.8590 0.6264
vt 0.7864 0.8822
vt 0.4936 0.7224
vt 0.5125 0.8559
vt 0.0906 0.7864
vt 0.2071 0.9044
vt 0.2261 0.7270
vt 0.4320 0.9385
vt 0.6061 0.7997
vt 0.6061 0.7997
vt 0.7864 0.8822
vt 0.7864 0.8822
vt 0.9324 0.7483
vt 0.9702 0.6319
vt 0.9702 0.6319
vt 0.6520 0.7521
vt 0.6520 0.7521
vt 0.6714 0.6402
vt 0.4161 0.9733
vt 0.2381 0.8979
vt 0.6994 0.9229
vt 0.6851 0.8088
vt 0.9526 0.6967
vt 0.9800 0.5804
vt 0.9800 0.5804
vn 0.0000 0.0000 0.0000
vn 0.9997 0.0250 -0.0059
vn 0.0000 0.0000 1.0000
vn 0.6109 0.7917 -0.0020
vn 0.9941 -0.1082 -0.0061
vn -0.0004 1.0000 0.0021
vn 0.7523 0.6588 -0.0031
vn -0.7879 0.6157 0.0060
vn -0.7879 0.6158 0.0060
vn 0.0004 -1.0000 -0.0021
vn -0.7049 0.7093 0.0057
vn -0.7048 0.7093 0.0057
vn 0.0005 0.5592 0.8290
vn 0.0005 0.5593 0.8290
vn -0.0010 0.4187 -0.9081
vn -0.0010 0.5508 -0.8346
vn -0.0010 0.5507 -0.8347
vn 0.0006 0.4804 0.8771
vn 0.0006 0.4806 0.8770
vn -0.3427 0.0575 0.9377
vn -0.3427 0.0574 0.9377
vn -0.3425 -0.0682 0.9370
vn -0.3891 -0.0735 0.9183
vn 0.0010 -0.3974 0.9176
vn 0.0010 -0.3974 0.9177
vn 0.3553 -0.1658 0.9199
vn 0.4202 -0.2057 0.8838
vn 0.4888 -0.2463 -0.8369
vn 0.4131 -0.2175 -0.8843
vn -0.0006 -0.4853 -0.8743
vn -0.0006 -0.4853 -0.8744
vn -0.4614 -0.1091 -0.8804
vn -0.4145 -0.0934 -0.9052
vn -0.4159 0.0526 -0.9079
vn 0.8696 -0.1219 0.4784
vn 0.8640 -0.3454 0.3665
vn 0.8828 -0.3478 0.3157
vn 0.8445 -0.5355 -0.0061
vn 0.8692 -0.3307 -0.3676
vn 0.8225 -0.4075 -0.3967
vn 0.8178 -0.1231 -0.5621
vn 0.8179 -0.1231 -0.5620
vn -0.8238 0.1146 -0.5552
vn -0.8237 0.1146 -0.5554
vn -0.8850 -0.1280 -0.4476
vn -0.9354 -0.1150 -0.3343
vn -0.9454 -0.3259 0.0049
vn -0.9263 -0.0804 0.3681
vn -0.9135 -0.1282 0.3860
vn -0.8640 0.1292 0.4866
vn -0.3089 0.0368 -0.9504
vn -0.3082 -0.0717 -0.9486
vn -0.3472 -0.0843 -0.9340
vn -0.0007 -0.3684 -0.9297
vn -0.0007 -0.3686 -0.9296
vn 0.3104 -0.1658 -0.9360
vn 0.3760 -0.1917 -0.9066
vn -0.4104 0.0670 0.9094
vn -0.4105 0.0670 0.9094
vn -0.4101 -0.0834 0.9082
vn -0.4619 -0.0889 0.8825
vn 0.0010 -0.4732 0.8810
vn 0.0010 -0.4730 0.8811
vn 0.4221 -0.1987 0.8845
vn 0.4915 -0.2424 0.8365
vn 0.1886 0.2307 -0.9546
vn 0.1939 0.2510 0.9484
vn 0.0007 0.3546 0.9350
vn 0.0007 0.3545 0.9350
vn -0.8631 0.5050 0.0062
vn -0.8631 0.5049 0.0062
vn -0.0010 0.3415 -0.9399
vn 0.1890 0.2383 -0.9526
vn 0.1845 0.2458 0.9516
vn 0.3023 0.2579 -0.9176
vn 0.2563 0.2218 -0.9408
vn -0.6031 0.7976 0.0053
vn -0.6031 0.7977 0.0053
vn 0.2594 0.2342 0.9369
vn 0.2986 0.2733 0.9144
usemtl material_487
s 1
f 34/1/1 35/2/1 33/3/1
f 36/4/2 35/5/2 34/6/2
f 36/4/2 37/7/2 35/5/2
f 38/8/1 37/9/1 36/10/1
f 38/8/3 39/11/3 37/9/3
f 40/12/3 39/11/3 38/8/3
f 40/12/1 41/13/1 39/11/1
f 42/14/4 41/15/4 40/16/4
f 42/14/4 43/17/4 41/15/4
f 44/18/1 43/19/1 42/20/1
f 46/21/1 45/22/1 47/23/1
f 48/24/5 47/25/5 46/26/5
f 48/24/5 49/27/5 47/25/5
f 50/28/1 48/29/1 49/30/1
f 52/31/1 53/32/1 51/33/1
f 54/34/6 53/35/6 52/31/6
f 54/34/6 55/36/6 53/35/6
f 56/37/1 55/38/1 54/34/1
f 58/39/1 57/40/1 59/41/1
f 60/42/7 59/43/7 58/39/7
f 60/42/7 61/44/7 59/43/7
f 62/45/1 60/42/1 61/46/1
usemtl material_489
f 64/47/3 65/48/3 63/49/3
f 66/50/8 65/48/8 64/47/8
f 66/50/3 67/51/3 65/48/3
f 68/52/3 67/51/3 66/50/3
f 68/52/3 69/53/3 67/51/3
f 70/54/3 69/53/3 68/52/3
f 70/54/9 71/55/9 69/53/9
f 72/56/10 71/55/10 70/54/10
f 72/56/10 73/57/10 71/55/10
f 74/58/1 73/57/1 72/56/1
f 76/59/1 75/60/1 77/61/1
f 78/62/10 76/59/10 77/61/10
f 78/62/10 77/61/10 79/63/10
f 80/64/11 78/62/11 79/63/12
f 80/64/11 79/63/12 81/65/12
f 82/66/1 80/64/1 81/65/1
f 82/66/1 81/65/1 83/67/3
f 84/68/3 82/66/1 83/67/3
f 84/68/3 83/67/3 85/69/3
f 86/70/13 84/68/13 85/69/14
f 86/70/13 85/69/14 87/71/14
f 88/72/15 86/70/15 87/71/15
f 88/72/15 87/71/15 89/73/15
f 90/74/3 88/72/3 89/73/3
f 92/75/3 91/76/3 93/77/3
f 94/78/16 92/75/16 93/77/17
f 94/78/16 93/77/17 95/79/17
f 96/80/18 94/78/18 95/79/19
f 96/80/18 95/79/19 97/81/19
f 98/82/3 96/80/3 97/81/3
f 100/83/3 101/84/3 99/85/3
f 102/86/20 101/84/20 100/83/20
f 102/86/21 103/87/21 101/84/21
f 104/88/22 103/87/22 102/86/22
f 104/88/23 105/89/23 103/87/23
f 106/90/24 105/89/24 104/88/24
f 106/90/25 107/91/25 105/89/25
f 108/92/26 107/91/26 106/90/26
f 108/92/27 109/93/27 107/91/27
f 110/94/3 109/93/3 108/92/3
f 110/94/3 111/95/3 109/93/3
f 112/96/3 111/95/3 110/94/3
f 112/96/3 113/97/3 111/95/3
f 114/98/28 113/97/28 112/96/28
f 114/98/29 115/99/29 113/97/29
f 116/100/30 115/99/30 114/98/30
f 116/100/31 117/101/31 115/99/31
f 118/102/32 117/101/32 116/100/32
f 118/102/33 119/103/33 117/101/33
f 120/104/34 119/103/34 118/102/34
f 120/104/34 121/105/34 119/103/34
f 122/106/3 121/105/3 120/104/3
f 124/107/3 125/108/3 123/109/3
f 126/110/35 125/108/35 124/107/35
f 126/110/35 127/111/35 125/108/35
f 128/112/36 127/111/36 126/110/36
f 128/112/37 129/113/37 127/111/37
f 130/114/38 129/113/38 128/112/38
f 130/114/38 131/115/38 129/113/38
f 132/116/39 131/115/39 130/114/39
f 132/116/40 133/117/40 131/115/40
f 134/118/41 133/117/41 132/116/41
f 134/118/42 135/119/42 133/117/42
f 136/120/3 135/119/3 134/118/3
f 136/120/3 137/121/3 135/119/3
f 138/122/3 137/121/3 136/120/3
f 138/122/3 139/123/3 137/121/3
f 140/124/43 139/123/43 138/122/43
f 140/124/44 141/125/44 139/123/44
f 142/126/45 141/125/45 140/124/45
f 142/126/46 143/127/46 141/125/46
f 144/128/47 143/127/47 142/126/47
f 144/128/47 145/129/47 143/127/47
f 146/130/48 145/129/48 144/128/48
f 146/130/49 147/131/49 145/129/49
f 148/132/50 147/131/50 146/130/50
f 148/132/50 149/133/50 147/131/50
f 150/134/3 149/133/3 148/132/3
f 152/135/3 153/136/3 151/137/3
f 154/138/51 153/136/51 152/135/51
f 154/138/51 155/139/51 153/136/51
f 156/140/52 155/139/52 154/138/52
f 156/140/53 157/141/53 155/139/53
f 158/142/54 157/141/54 156/140/54
f 158/142/55 159/143/55 157/141/55
f 160/144/56 159/143/56 158/142/56
f 160/144/57 161/145/57 159/143/57
f 162/146/3 161/145/3 160/144/3
f 164/147/3 165/148/3 163/149/3
f 166/150/58 165/148/58 164/147/58
f 166/150/59 167/151/59 165/148/59
f 168/152/60 167/151/60 166/150/60
f 168/152/61 169/153/61 167/151/61
f 170/154/62 169/153/62 168/152/62
f 170/154/63 171/155/63 169/153/63
f 172/156/64 171/155/64 170/154/64
f 172/156/65 173/157/65 171/155/65
f 174/158/3 173/157/3 172/156/3
usemtl material_488
f 2/159/3 3/160/3 1/161/3
f 4/162/66 3/160/66 2/159/66
f 4/162/3 5/163/3 3/160/3
f 6/164/3 5/163/3 4/162/3
f 6/164/3 7/165/3 5/163/3
f 8/166/3 7/165/3 6/164/3
f 8/166/67 7/165/67 9/167/67
f 10/168/68 8/166/69 9/167/69
f 10/168/68 9/167/69 11/169/68
f 12/170/70 10/168/71 11/169/70
f 12/170/70 11/169/70 13/171/70
f 14/172/72 12/170/72 13/171/72
f 14/172/72 13/171/72 15/173/72
f 16/174/73 14/172/73 15/173/73
f 16/174/3 17/175/3 15/173/3
f 18/176/3 17/175/3 16/174/3
f 18/176/3 19/177/3 17/175/3
f 20/178/3 19/177/3 18/176/3
f 20/178/74 19/177/74 21/179/74
f 22/180/3 21/179/3 20/178/3
f 24/181/3 23/182/3 25/183/3
f 26/184/75 24/181/75 25/183/75
f 26/184/76 25/183/76 27/185/76
f 28/186/77 26/184/78 27/185/78
f 28/186/77 27/185/78 29/187/77
f 30/188/79 28/186/79 29/187/79
f 30/188/80 29/187/80 31/189/80
f 32/190/3 30/188/3 31/189/3
