# 3ds Max Wavefront OBJ Exporter v0.97b - (c)2007 guruware
# File Created: 04.08.2016 21:34:06

mtllib SkyBox2.mtl

#
# object SkyBox2
#

v  -1000.0000 -1000.0000 1000.0000
v  1000.0000 -1000.0000 1000.0000
v  1000.0000 1000.0000 1000.0000
v  -1000.0000 1000.0000 1000.0000
v  1000.0000 1000.0000 -1000.0000
v  -1000.0000 1000.0000 -1000.0000
v  1000.0000 -1000.0000 -1000.0000
v  -1000.0000 -1000.0000 -1000.0000
# 8 vertices

vn 0.0000 0.0000 1.0000
vn 0.0000 1.0000 -0.0000
vn 1.0000 0.0000 -0.0000
vn 0.0000 0.0000 -1.0000
vn -1.0000 0.0000 -0.0000
vn 0.0000 -1.0000 -0.0000
# 6 vertex normals

vt 0.0000 0.0000 0.0000
vt 1.0000 0.0000 0.0000
vt 1.0000 1.0000 0.0000
vt 0.0000 1.0000 0.0000
vt 0.5000 0.3333 1.7321
vt 0.2500 0.3333 1.7321
vt 0.2500 0.0000 1.7321
vt 0.5000 0.0000 1.7321
# 8 texture coords

g SkyBox2
usemtl Material__33
f 1/1/1 2/2/1 3/3/1 
f 3/3/1 4/4/1 1/1/1 
usemtl Material__31
f 4/1/2 3/2/2 5/3/2 
f 5/3/2 6/4/2 4/1/2 
usemtl Material__28
f 2/1/3 7/2/3 5/3/3 
f 5/3/3 3/4/3 2/1/3 
usemtl Material__34
f 7/1/4 8/2/4 6/3/4 
f 6/3/4 5/4/4 7/1/4 
usemtl Material__30
f 8/1/5 1/2/5 4/3/5 
f 4/3/5 6/4/5 8/1/5 
usemtl Material__32
f 1/5/6 8/6/6 7/7/6 
f 7/7/6 2/8/6 1/5/6 
# 12 faces

