# Blender v2.78 (sub 0) OBJ File: ''
# www.blender.org
mtllib Ball.mtl
v 0.000000 -7.721622 0.000000
v 5.587422 -3.453260 4.059453
v -2.134164 -3.453263 6.568392
v -6.906422 -3.453230 0.000000
v -2.134164 -3.453263 -6.568392
v 5.587422 -3.453260 -4.059453
v 2.134164 3.453263 6.568392
v -5.587422 3.453260 4.059453
v -5.587422 3.453260 -4.059453
v 2.134164 3.453263 -6.568392
v 6.906422 3.453230 0.000000
v 0.000000 7.721622 0.000000
v -1.797760 -5.077115 5.533030
v -1.254421 -6.568432 3.860775
v -0.599249 -7.474142 1.844330
v 1.568886 -7.474141 1.139849
v 3.284181 -6.568430 2.386069
v 4.706689 -5.077112 3.419570
v 4.107447 -3.878584 5.263926
v 2.029774 -4.059547 6.246882
v -0.228863 -3.878586 6.672904
v 6.275589 -3.878576 -2.279714
v 6.568382 -4.059534 0.000000
v 6.275589 -3.878576 2.279714
v 1.568886 -7.474141 -1.139849
v 3.284181 -6.568430 -2.386069
v 4.706689 -5.077112 -3.419570
v -5.817792 -5.077081 0.000000
v -4.059487 -6.568411 0.000000
v -1.939262 -7.474135 0.000000
v -3.737045 -3.878584 5.533041
v -5.313939 -4.059536 3.860787
v -6.417059 -3.878561 1.844336
v -1.797760 -5.077115 -5.533030
v -1.254421 -6.568432 -3.860775
v -0.599249 -7.474142 -1.844330
v -6.417059 -3.878561 -1.844336
v -5.313939 -4.059536 -3.860788
v -3.737045 -3.878584 -5.533041
v -0.228863 -3.878586 -6.672904
v 2.029774 -4.059547 -6.246883
v 4.107447 -3.878584 -5.263926
v 7.386703 1.939281 1.139853
v 7.343709 -0.000000 2.386079
v 6.645982 -1.939292 3.419579
v 6.645982 -1.939292 -3.419579
v 7.343709 0.000000 -2.386079
v 7.386703 1.939281 -1.139853
v 1.198512 1.939297 7.377409
v 0.000000 -0.000000 7.721622
v -1.198512 -1.939297 7.377409
v 5.305979 -1.939300 5.263948
v 4.538659 0.000000 6.246922
v 3.366680 1.939301 6.672933
v -6.645982 1.939292 3.419579
v -7.343709 -0.000000 2.386079
v -7.386703 -1.939281 1.139853
v -3.366680 -1.939301 6.672933
v -4.538659 0.000000 6.246922
v -5.305979 1.939300 5.263948
v -5.305979 1.939300 -5.263948
v -4.538659 -0.000000 -6.246922
v -3.366680 -1.939301 -6.672933
v -7.386703 -1.939281 -1.139853
v -7.343709 0.000000 -2.386079
v -6.645982 1.939292 -3.419579
v 3.366680 1.939301 -6.672933
v 4.538659 -0.000000 -6.246922
v 5.305979 -1.939300 -5.263948
v -1.198512 -1.939297 -7.377409
v 0.000000 0.000000 -7.721622
v 1.198512 1.939297 -7.377409
v 6.417059 3.878561 1.844336
v 5.313939 4.059536 3.860788
v 3.737045 3.878584 5.533041
v 0.228863 3.878586 6.672904
v -2.029774 4.059547 6.246883
v -4.107447 3.878584 5.263926
v -6.275589 3.878576 2.279714
v -6.568382 4.059534 0.000000
v -6.275589 3.878576 -2.279714
v -4.107447 3.878584 -5.263926
v -2.029774 4.059547 -6.246882
v 0.228863 3.878586 -6.672904
v 3.737045 3.878584 -5.533041
v 5.313939 4.059536 -3.860787
v 6.417059 3.878561 -1.844336
v 0.599249 7.474142 1.844331
v 1.254421 6.568432 3.860775
v 1.797760 5.077115 5.533030
v 5.817792 5.077081 0.000000
v 4.059487 6.568411 0.000000
v 1.939262 7.474135 0.000000
v -1.568886 7.474141 1.139849
v -3.284181 6.568430 2.386069
v -4.706689 5.077112 3.419570
v -1.568886 7.474141 -1.139849
v -3.284181 6.568430 -2.386069
v -4.706689 5.077112 -3.419570
v 0.599249 7.474142 -1.844331
v 1.254421 6.568432 -3.860775
v 1.797760 5.077115 -5.533030
v 2.793685 6.906445 -2.029728
v 4.927890 5.587443 -2.029737
v 3.453180 5.587456 -4.059474
v -1.067107 6.906450 -3.284157
v -0.407621 5.587461 -5.313904
v -2.793711 5.587461 -4.538603
v -3.453186 6.906444 0.000000
v -5.179792 5.587450 -1.254432
v -5.179792 5.587450 1.254432
v -1.067107 6.906450 3.284157
v -2.793711 5.587461 4.538603
v -0.407621 5.587461 5.313904
v 2.793685 6.906445 2.029728
v 3.453181 5.587456 4.059474
v 4.927890 5.587443 2.029737
v 6.654527 2.134227 -3.284176
v 6.246942 0.000000 -4.538631
v 5.179823 2.134236 -5.313937
v -1.067117 2.134234 -7.343688
v -2.386108 -0.000004 -7.343700
v -3.453226 2.134235 -6.568388
v -7.314023 2.134225 -1.254436
v -7.721622 0.000005 0.000003
v -7.314021 2.134230 1.254438
v -3.453231 2.134232 6.568386
v -2.386114 -0.000006 7.343699
v -1.067122 2.134232 7.343688
v 5.179821 2.134227 5.313941
v 6.246937 -0.000015 4.538638
v 6.654526 2.134213 3.284185
v 2.386114 -0.000000 -7.343699
v 3.453230 -2.134239 -6.568386
v 1.067121 -2.134237 -7.343687
v -6.246935 -0.000000 -4.538640
v -5.179811 -2.134236 -5.313949
v -6.654518 -2.134228 -3.284191
v -6.246935 0.000000 4.538640
v -6.654519 -2.134228 3.284191
v -5.179811 -2.134236 5.313949
v 2.386114 0.000000 7.343699
v 1.067121 -2.134237 7.343687
v 3.453230 -2.134239 6.568385
v 7.721622 0.000000 0.000000
v 7.314023 -2.134226 1.254436
v 7.314023 -2.134226 -1.254436
v 2.793710 -5.587456 -4.538609
v 1.067104 -6.906444 -3.284171
v 0.407617 -5.587451 -5.313915
v -3.453191 -5.587455 -4.059466
v -2.793692 -6.906442 -2.029725
v -4.927899 -5.587439 -2.029727
v -4.927897 -5.587438 2.029734
v -2.793693 -6.906438 2.029739
v -3.453191 -5.587447 4.059478
v 5.179796 -5.587448 -1.254430
v 5.179800 -5.587443 1.254437
v 3.453194 -6.906439 0.000006
v 0.407627 -5.587457 5.313907
v 1.067118 -6.906444 3.284165
v 2.793721 -5.587451 4.538609
vt 0.9999 0.1582
vt 0.9521 0.2195
vt 0.9117 0.1348
vt 0.8820 0.4646
vt 0.8973 0.3895
vt 0.9225 0.4701
vt 1.0347 0.0811
vt 1.0820 0.1691
vt 1.0236 0.2344
vt 0.8924 0.5427
vt 0.7121 0.2912
vt 0.7592 0.3165
vt 0.7157 0.3717
vt 0.4461 0.1998
vt 0.5159 0.1747
vt 0.4859 0.2614
vt 0.2253 0.3573
vt 0.2575 0.2982
vt 0.2649 0.3916
vt 0.0578 0.4994
vt 0.0933 0.4607
vt 0.0876 0.5543
vt 0.8482 0.5090
vt 0.6686 0.3284
vt 0.4231 0.2745
vt 0.2223 0.4379
vt 0.0403 0.5725
vt 0.7253 0.6427
vt 0.7575 0.7018
vt 0.6985 0.7096
vt 0.5578 0.5006
vt 0.5933 0.5393
vt 0.5499 0.5799
vt 0.3820 0.5354
vt 0.4225 0.5299
vt 0.3973 0.6105
vt 0.2121 0.7088
vt 0.2592 0.6835
vt 0.2442 0.7751
vt 0.9461 0.8002
vt 1.0159 0.8253
vt 0.9270 0.8790
vt 0.5347 0.9189
vt 0.4117 0.8652
vt 0.4999 0.8418
vt 0.8100 0.9607
vt 1.3063 0.9393
vt 1.0692 0.9101
vt 0.3063 0.9393
vt 0.3073 0.8393
vt 0.0692 0.9101
vt 0.1985 0.8555
vt 0.0159 0.8253
vt 0.1050 0.8141
vt 0.1728 0.7657
vt 0.4521 0.7805
vt 0.3781 0.7778
vt 0.3075 0.7393
vt 0.4194 0.6977
vt 0.3604 0.6773
vt 0.3076 0.6393
vt 0.3496 0.5853
vt 0.5236 0.7656
vt 0.4809 0.6962
vt 0.4474 0.6107
vt 0.5392 0.6732
vt 0.5020 0.5993
vt 0.4702 0.5211
vt 0.5176 0.5104
vt 0.5820 0.8309
vt 0.5876 0.7370
vt 0.5910 0.6333
vt 0.6536 0.7805
vt 0.6434 0.6816
vt 0.6367 0.5823
vt 0.6831 0.6191
vt 0.6766 0.8779
vt 0.7338 0.7897
vt 0.8084 0.8607
vt 0.8081 0.7607
vt 0.8775 0.7970
vt 0.9859 0.7386
vt 1.0170 0.6574
vt 1.0507 0.7416
vt 0.0728 0.6441
vt 0.0170 0.6574
vt 0.0507 0.7416
vt 0.1177 0.7155
vt 0.1252 0.6164
vt 0.1686 0.6716
vt 0.2157 0.6283
vt 0.2191 0.5331
vt 0.2612 0.5894
vt 0.2632 0.4856
vt 0.3077 0.5393
vt 0.3078 0.4393
vt 0.3482 0.4910
vt 0.3924 0.4573
vt 0.4057 0.3653
vt 0.4394 0.4421
vt 0.4604 0.3459
vt 0.4921 0.4311
vt 0.5170 0.3426
vt 0.5403 0.4275
vt 0.5876 0.4457
vt 0.6252 0.3836
vt 0.6311 0.4830
vt 0.6737 0.4220
vt 0.6785 0.5255
vt 0.7191 0.4669
vt 0.7223 0.5621
vt 0.7649 0.6084
vt 0.8078 0.5607
vt 0.8079 0.6607
vt 0.8549 0.6022
vt 0.8641 0.7048
vt 0.9057 0.6347
vt 0.9231 0.7255
vt 0.1737 0.5780
vt 0.1311 0.5170
vt 0.1785 0.4745
vt 0.1367 0.4177
vt 0.1831 0.3809
vt 0.3549 0.3978
vt 0.3079 0.3393
vt 0.3641 0.2952
vt 0.3081 0.2393
vt 0.3775 0.2030
vt 0.5728 0.3559
vt 0.5507 0.2584
vt 0.6177 0.2845
vt 0.6050 0.1859
vt 0.6728 0.2343
vt 0.7632 0.5144
vt 0.7612 0.4106
vt 0.8077 0.4607
vt 0.8076 0.3607
vt 0.8496 0.4147
vt 0.9604 0.6541
vt 0.9394 0.5579
vt 0.9921 0.5689
vt 1.0403 0.5725
vt 0.9702 0.4789
vt 1.0177 0.4896
vt 0.0176 0.4896
vt 0.0499 0.4201
vt 0.0392 0.3268
vt 0.0910 0.3667
vt 0.0236 0.2344
vt 0.0876 0.2630
vt 0.1434 0.3184
vt 0.0820 0.1691
vt 0.1536 0.2195
vt 0.1985 0.2904
vt 0.2338 0.2103
vt 0.1766 0.1221
vt 0.3084 0.1393
vt 0.0347 0.0811
vt 0.3100 0.0393
vt 0.4270 0.1210
vt 0.5692 0.0899
vt 0.8063 0.0607
vt 0.6985 0.1445
vt 0.8073 0.1607
vt 0.7442 0.2249
vt 1.0020 0.4007
vt 0.9474 0.3893
vt 0.0020 0.4007
vt 0.9809 0.3038
vt 1.0392 0.3268
vt 0.9194 0.3023
vt 0.8075 0.2607
vt 0.8781 0.2222
vt 0.8604 0.3227
vn 0.0000 -1.0000 0.0000
vn 0.2109 -0.9654 0.1533
vn -0.0806 -0.9654 0.2480
vn 0.7236 -0.4472 0.5257
vn 0.6042 -0.6650 0.4390
vn 0.8152 -0.5038 0.2857
vn -0.2608 -0.9654 0.0000
vn -0.0806 -0.9654 -0.2480
vn 0.2109 -0.9654 -0.1533
vn 0.8650 -0.2430 0.4390
vn -0.2764 -0.4472 0.8506
vn -0.0198 -0.5038 0.8636
vn -0.1502 -0.2430 0.9583
vn -0.8944 -0.4472 0.0000
vn -0.8274 -0.5038 0.2480
vn -0.9578 -0.2430 0.1533
vn -0.2764 -0.4472 -0.8506
vn -0.4915 -0.5038 -0.7103
vn -0.4417 -0.2430 -0.8636
vn 0.7236 -0.4472 -0.5257
vn 0.5236 -0.5038 -0.6870
vn 0.6848 -0.2430 -0.6870
vn 0.6848 -0.2430 0.6870
vn -0.4417 -0.2430 0.8636
vn -0.9578 -0.2430 -0.1533
vn -0.1502 -0.2430 -0.9583
vn 0.8650 -0.2430 -0.4390
vn 0.2764 0.4472 0.8506
vn 0.4915 0.5038 0.7103
vn 0.2308 0.6650 0.7103
vn -0.7236 0.4472 0.5257
vn -0.5236 0.5038 0.6870
vn -0.6042 0.6650 0.4390
vn -0.7236 0.4472 -0.5257
vn -0.8152 0.5038 -0.2857
vn -0.6042 0.6650 -0.4390
vn 0.2764 0.4472 -0.8506
vn 0.0198 0.5038 -0.8636
vn 0.2308 0.6650 -0.7103
vn 0.8944 0.4472 0.0000
vn 0.8274 0.5038 -0.2480
vn 0.7468 0.6650 0.0000
vn 0.2608 0.9654 0.0000
vn 0.0806 0.9654 -0.2480
vn 0.0000 1.0000 0.0000
vn 0.5257 0.8506 0.0000
vn 0.3682 0.8904 -0.2675
vn 0.6317 0.7275 -0.2675
vn 0.1625 0.8506 -0.5000
vn 0.4496 0.7275 -0.5181
vn 0.6882 0.5257 -0.5000
vn 0.4915 0.5038 -0.7103
vn -0.2109 0.9654 -0.1533
vn -0.1406 0.8904 -0.4328
vn -0.0592 0.7275 -0.6835
vn -0.4253 0.8506 -0.3090
vn -0.3538 0.7275 -0.5877
vn -0.2629 0.5257 -0.8090
vn -0.5236 0.5038 -0.6870
vn -0.2109 0.9654 0.1532
vn -0.4551 0.8904 0.0000
vn -0.6683 0.7275 -0.1549
vn -0.4253 0.8506 0.3090
vn -0.6683 0.7275 0.1549
vn -0.8506 0.5257 0.0000
vn -0.8152 0.5038 0.2857
vn 0.0806 0.9654 0.2480
vn -0.1406 0.8904 0.4328
vn -0.3538 0.7275 0.5877
vn 0.1625 0.8506 0.5000
vn -0.0592 0.7275 0.6835
vn -0.2629 0.5257 0.8090
vn 0.0198 0.5038 0.8636
vn 0.3682 0.8904 0.2675
vn 0.4496 0.7275 0.5181
vn 0.6317 0.7275 0.2675
vn 0.6882 0.5257 0.5000
vn 0.8274 0.5038 0.2480
vn 0.9578 0.2430 -0.1533
vn 0.9510 0.0000 -0.3090
vn 0.8593 0.2724 -0.4328
vn 0.8090 0.0089 -0.5878
vn 0.6772 0.2724 -0.6835
vn 0.5878 0.0000 -0.8090
vn 0.4417 0.2430 -0.8636
vn 0.1502 0.2430 -0.9583
vn 0.0000 0.0000 -1.0000
vn -0.1461 0.2724 -0.9510
vn -0.3090 0.0089 -0.9510
vn -0.4407 0.2724 -0.8553
vn -0.5878 0.0000 -0.8090
vn -0.6848 0.2430 -0.6870
vn -0.8650 0.2430 -0.4390
vn -0.9510 0.0000 -0.3090
vn -0.9496 0.2724 -0.1549
vn -0.9999 0.0089 0.0000
vn -0.9496 0.2724 0.1549
vn -0.9510 0.0000 0.3090
vn -0.8650 0.2430 0.4390
vn -0.6848 0.2430 0.6870
vn -0.5878 0.0000 0.8090
vn -0.4407 0.2724 0.8553
vn -0.3090 0.0089 0.9510
vn -0.1461 0.2724 0.9510
vn 0.0000 0.0000 1.0000
vn 0.1502 0.2430 0.9583
vn 0.4417 0.2430 0.8636
vn 0.5878 0.0000 0.8090
vn 0.6772 0.2724 0.6835
vn 0.8090 0.0089 0.5878
vn 0.8593 0.2724 0.4328
vn 0.9510 0.0000 0.3090
vn 0.9578 0.2430 0.1533
vn 0.3090 -0.0089 -0.9510
vn 0.4407 -0.2724 -0.8553
vn 0.1461 -0.2724 -0.9510
vn 0.2629 -0.5257 -0.8090
vn -0.0198 -0.5038 -0.8636
vn -0.8090 -0.0089 -0.5878
vn -0.6772 -0.2724 -0.6835
vn -0.8593 -0.2724 -0.4328
vn -0.6882 -0.5257 -0.5000
vn -0.8274 -0.5038 -0.2480
vn -0.8090 -0.0089 0.5878
vn -0.8593 -0.2724 0.4328
vn -0.6772 -0.2724 0.6835
vn -0.6882 -0.5257 0.5000
vn -0.4915 -0.5038 0.7103
vn 0.3090 -0.0089 0.9510
vn 0.1461 -0.2724 0.9510
vn 0.4407 -0.2724 0.8553
vn 0.2629 -0.5257 0.8090
vn 0.5236 -0.5038 0.6870
vn 0.9999 -0.0089 0.0000
vn 0.9496 -0.2724 0.1549
vn 0.9496 -0.2724 -0.1549
vn 0.8506 -0.5257 0.0000
vn 0.8152 -0.5038 -0.2857
vn 0.6042 -0.6650 -0.4390
vn 0.4253 -0.8506 -0.3090
vn 0.3538 -0.7275 -0.5878
vn 0.1406 -0.8904 -0.4328
vn 0.0592 -0.7275 -0.6835
vn -0.1625 -0.8506 -0.5000
vn -0.2308 -0.6650 -0.7103
vn -0.4496 -0.7275 -0.5181
vn -0.3682 -0.8904 -0.2675
vn -0.6317 -0.7275 -0.2675
vn -0.5257 -0.8506 0.0000
vn -0.7468 -0.6650 0.0000
vn -0.6317 -0.7275 0.2675
vn -0.3682 -0.8904 0.2675
vn -0.4496 -0.7275 0.5181
vn -0.1625 -0.8506 0.5000
vn -0.2308 -0.6650 0.7103
vn 0.6683 -0.7275 -0.1549
vn 0.6683 -0.7275 0.1549
vn 0.4551 -0.8904 0.0000
vn 0.4253 -0.8506 0.3090
vn 0.0592 -0.7275 0.6835
vn 0.1406 -0.8904 0.4328
vn 0.3538 -0.7275 0.5878
usemtl None
s 1
f 1/1/1 16/2/2 15/3/3
f 2/4/4 18/5/5 24/6/6
f 1/1/1 15/3/3 30/7/7
f 1/1/1 30/7/7 36/8/8
f 1/1/1 36/8/8 25/9/9
f 2/4/4 24/6/6 45/10/10
f 3/11/11 21/12/12 51/13/13
f 4/14/14 33/15/15 57/16/16
f 5/17/17 39/18/18 63/19/19
f 6/20/20 42/21/21 69/22/22
f 2/4/4 45/10/10 52/23/23
f 3/11/11 51/13/13 58/24/24
f 4/14/14 57/16/16 64/25/25
f 5/17/17 63/19/19 70/26/26
f 6/20/20 69/22/22 46/27/27
f 7/28/28 75/29/29 90/30/30
f 8/31/31 78/32/32 96/33/33
f 9/34/34 81/35/35 99/36/36
f 10/37/37 84/38/38 102/39/39
f 11/40/40 87/41/41 91/42/42
f 93/43/43 100/44/44 12/45/45
f 92/46/46 103/47/47 93/43/43
f 91/42/42 104/48/48 92/46/46
f 93/43/43 103/49/47 100/44/44
f 103/49/47 101/50/49 100/44/44
f 92/46/46 104/48/48 103/47/47
f 104/51/48 105/52/50 103/49/47
f 103/49/47 105/52/50 101/50/49
f 105/52/50 102/39/39 101/50/49
f 91/42/42 87/41/41 104/48/48
f 87/53/41 86/54/51 104/51/48
f 104/51/48 86/54/51 105/52/50
f 86/54/51 85/55/52 105/52/50
f 105/52/50 85/55/52 102/39/39
f 85/55/52 10/37/37 102/39/39
f 100/44/44 97/56/53 12/45/45
f 101/50/49 106/57/54 100/44/44
f 102/39/39 107/58/55 101/50/49
f 100/44/44 106/57/54 97/56/53
f 106/57/54 98/59/56 97/56/53
f 101/50/49 107/58/55 106/57/54
f 107/58/55 108/60/57 106/57/54
f 106/57/54 108/60/57 98/59/56
f 108/60/57 99/36/36 98/59/56
f 102/39/39 84/38/38 107/58/55
f 84/38/38 83/61/58 107/58/55
f 107/58/55 83/61/58 108/60/57
f 83/61/58 82/62/59 108/60/57
f 108/60/57 82/62/59 99/36/36
f 82/62/59 9/34/34 99/36/36
f 97/56/53 94/63/60 12/45/45
f 98/59/56 109/64/61 97/56/53
f 99/36/36 110/65/62 98/59/56
f 97/56/53 109/64/61 94/63/60
f 109/64/61 95/66/63 94/63/60
f 98/59/56 110/65/62 109/64/61
f 110/65/62 111/67/64 109/64/61
f 109/64/61 111/67/64 95/66/63
f 111/67/64 96/33/33 95/66/63
f 99/36/36 81/35/35 110/65/62
f 81/35/35 80/68/65 110/65/62
f 110/65/62 80/68/65 111/67/64
f 80/68/65 79/69/66 111/67/64
f 111/67/64 79/69/66 96/33/33
f 79/69/66 8/31/31 96/33/33
f 94/63/60 88/70/67 12/45/45
f 95/66/63 112/71/68 94/63/60
f 96/33/33 113/72/69 95/66/63
f 94/63/60 112/71/68 88/70/67
f 112/71/68 89/73/70 88/70/67
f 95/66/63 113/72/69 112/71/68
f 113/72/69 114/74/71 112/71/68
f 112/71/68 114/74/71 89/73/70
f 114/74/71 90/30/30 89/73/70
f 96/33/33 78/32/32 113/72/69
f 78/32/32 77/75/72 113/72/69
f 113/72/69 77/75/72 114/74/71
f 77/75/72 76/76/73 114/74/71
f 114/74/71 76/76/73 90/30/30
f 76/76/73 7/28/28 90/30/30
f 88/70/67 93/43/43 12/45/45
f 89/73/70 115/77/74 88/70/67
f 90/30/30 116/78/75 89/73/70
f 88/70/67 115/77/74 93/43/43
f 115/77/74 92/46/46 93/43/43
f 89/73/70 116/78/75 115/77/74
f 116/78/75 117/79/76 115/77/74
f 115/77/74 117/79/76 92/46/46
f 117/79/76 91/42/42 92/46/46
f 90/30/30 75/29/29 116/78/75
f 75/29/29 74/80/77 116/78/75
f 116/78/75 74/80/77 117/79/76
f 74/80/77 73/81/78 117/79/76
f 117/79/76 73/81/78 91/42/42
f 73/81/78 11/40/40 91/42/42
f 48/82/79 87/41/41 11/40/40
f 47/83/80 118/84/81 48/82/79
f 46/27/27 119/85/82 47/86/80
f 48/82/79 118/84/81 87/41/41
f 118/87/81 86/54/51 87/53/41
f 47/86/80 119/85/82 118/87/81
f 119/85/82 120/88/83 118/87/81
f 118/87/81 120/88/83 86/54/51
f 120/88/83 85/55/52 86/54/51
f 46/27/27 69/22/22 119/85/82
f 69/22/22 68/89/84 119/85/82
f 119/85/82 68/89/84 120/88/83
f 68/89/84 67/90/85 120/88/83
f 120/88/83 67/90/85 85/55/52
f 67/90/85 10/37/37 85/55/52
f 72/91/86 84/38/38 10/37/37
f 71/92/87 121/93/88 72/91/86
f 70/26/26 122/94/89 71/92/87
f 72/91/86 121/93/88 84/38/38
f 121/93/88 83/61/58 84/38/38
f 71/92/87 122/94/89 121/93/88
f 122/94/89 123/95/90 121/93/88
f 121/93/88 123/95/90 83/61/58
f 123/95/90 82/62/59 83/61/58
f 70/26/26 63/19/19 122/94/89
f 63/19/19 62/96/91 122/94/89
f 122/94/89 62/96/91 123/95/90
f 62/96/91 61/97/92 123/95/90
f 123/95/90 61/97/92 82/62/59
f 61/97/92 9/34/34 82/62/59
f 66/98/93 81/35/35 9/34/34
f 65/99/94 124/100/95 66/98/93
f 64/25/25 125/101/96 65/99/94
f 66/98/93 124/100/95 81/35/35
f 124/100/95 80/68/65 81/35/35
f 65/99/94 125/101/96 124/100/95
f 125/101/96 126/102/97 124/100/95
f 124/100/95 126/102/97 80/68/65
f 126/102/97 79/69/66 80/68/65
f 64/25/25 57/16/16 125/101/96
f 57/16/16 56/103/98 125/101/96
f 125/101/96 56/103/98 126/102/97
f 56/103/98 55/104/99 126/102/97
f 126/102/97 55/104/99 79/69/66
f 55/104/99 8/31/31 79/69/66
f 60/105/100 78/32/32 8/31/31
f 59/106/101 127/107/102 60/105/100
f 58/24/24 128/108/103 59/106/101
f 60/105/100 127/107/102 78/32/32
f 127/107/102 77/75/72 78/32/32
f 59/106/101 128/108/103 127/107/102
f 128/108/103 129/109/104 127/107/102
f 127/107/102 129/109/104 77/75/72
f 129/109/104 76/76/73 77/75/72
f 58/24/24 51/13/13 128/108/103
f 51/13/13 50/110/105 128/108/103
f 128/108/103 50/110/105 129/109/104
f 50/110/105 49/111/106 129/109/104
f 129/109/104 49/111/106 76/76/73
f 49/111/106 7/28/28 76/76/73
f 54/112/107 75/29/29 7/28/28
f 53/113/108 130/114/109 54/112/107
f 52/23/23 131/115/110 53/113/108
f 54/112/107 130/114/109 75/29/29
f 130/114/109 74/80/77 75/29/29
f 53/113/108 131/115/110 130/114/109
f 131/115/110 132/116/111 130/114/109
f 130/114/109 132/116/111 74/80/77
f 132/116/111 73/81/78 74/80/77
f 52/23/23 45/10/10 131/115/110
f 45/10/10 44/117/112 131/115/110
f 131/115/110 44/117/112 132/116/111
f 44/117/112 43/118/113 132/116/111
f 132/116/111 43/118/113 73/81/78
f 43/118/113 11/40/40 73/81/78
f 67/90/85 72/91/86 10/37/37
f 68/89/84 133/119/114 67/90/85
f 69/22/22 134/120/115 68/89/84
f 67/90/85 133/119/114 72/91/86
f 133/119/114 71/92/87 72/91/86
f 68/89/84 134/120/115 133/119/114
f 134/120/115 135/121/116 133/119/114
f 133/119/114 135/121/116 71/92/87
f 135/121/116 70/26/26 71/92/87
f 69/22/22 42/21/21 134/120/115
f 42/21/21 41/122/117 134/120/115
f 134/120/115 41/122/117 135/121/116
f 41/122/117 40/123/118 135/121/116
f 135/121/116 40/123/118 70/26/26
f 40/123/118 5/17/17 70/26/26
f 61/97/92 66/98/93 9/34/34
f 62/96/91 136/124/119 61/97/92
f 63/19/19 137/125/120 62/96/91
f 61/97/92 136/124/119 66/98/93
f 136/124/119 65/99/94 66/98/93
f 62/96/91 137/125/120 136/124/119
f 137/125/120 138/126/121 136/124/119
f 136/124/119 138/126/121 65/99/94
f 138/126/121 64/25/25 65/99/94
f 63/19/19 39/18/18 137/125/120
f 39/18/18 38/127/122 137/125/120
f 137/125/120 38/127/122 138/126/121
f 38/127/122 37/128/123 138/126/121
f 138/126/121 37/128/123 64/25/25
f 37/128/123 4/14/14 64/25/25
f 55/104/99 60/105/100 8/31/31
f 56/103/98 139/129/124 55/104/99
f 57/16/16 140/130/125 56/103/98
f 55/104/99 139/129/124 60/105/100
f 139/129/124 59/106/101 60/105/100
f 56/103/98 140/130/125 139/129/124
f 140/130/125 141/131/126 139/129/124
f 139/129/124 141/131/126 59/106/101
f 141/131/126 58/24/24 59/106/101
f 57/16/16 33/15/15 140/130/125
f 33/15/15 32/132/127 140/130/125
f 140/130/125 32/132/127 141/131/126
f 32/132/127 31/133/128 141/131/126
f 141/131/126 31/133/128 58/24/24
f 31/133/128 3/11/11 58/24/24
f 49/111/106 54/112/107 7/28/28
f 50/110/105 142/134/129 49/111/106
f 51/13/13 143/135/130 50/110/105
f 49/111/106 142/134/129 54/112/107
f 142/134/129 53/113/108 54/112/107
f 50/110/105 143/135/130 142/134/129
f 143/135/130 144/136/131 142/134/129
f 142/134/129 144/136/131 53/113/108
f 144/136/131 52/23/23 53/113/108
f 51/13/13 21/12/12 143/135/130
f 21/12/12 20/137/132 143/135/130
f 143/135/130 20/137/132 144/136/131
f 20/137/132 19/138/133 144/136/131
f 144/136/131 19/138/133 52/23/23
f 19/138/133 2/4/4 52/23/23
f 43/118/113 48/82/79 11/40/40
f 44/117/112 145/139/134 43/118/113
f 45/10/10 146/140/135 44/117/112
f 43/118/113 145/139/134 48/82/79
f 145/139/134 47/83/80 48/82/79
f 44/117/112 146/140/135 145/139/134
f 146/140/135 147/141/136 145/139/134
f 145/139/134 147/141/136 47/83/80
f 147/141/136 46/142/27 47/83/80
f 45/10/10 24/6/6 146/140/135
f 24/6/6 23/143/137 146/140/135
f 146/140/135 23/143/137 147/141/136
f 23/143/137 22/144/138 147/141/136
f 147/141/136 22/144/138 46/142/27
f 22/145/138 6/20/20 46/27/27
f 27/146/139 42/21/21 6/20/20
f 26/147/140 148/148/141 27/146/139
f 25/149/9 149/150/142 26/147/140
f 27/146/139 148/148/141 42/21/21
f 148/148/141 41/122/117 42/21/21
f 26/147/140 149/150/142 148/148/141
f 149/150/142 150/151/143 148/148/141
f 148/148/141 150/151/143 41/122/117
f 150/151/143 40/123/118 41/122/117
f 25/149/9 36/152/8 149/150/142
f 36/152/8 35/153/144 149/150/142
f 149/150/142 35/153/144 150/151/143
f 35/153/144 34/154/145 150/151/143
f 150/151/143 34/154/145 40/123/118
f 34/154/145 5/17/17 40/123/118
f 34/154/145 39/18/18 5/17/17
f 35/153/144 151/155/146 34/154/145
f 36/152/8 152/156/147 35/153/144
f 34/154/145 151/155/146 39/18/18
f 151/155/146 38/127/122 39/18/18
f 35/153/144 152/156/147 151/155/146
f 152/156/147 153/157/148 151/155/146
f 151/155/146 153/157/148 38/127/122
f 153/157/148 37/128/123 38/127/122
f 36/152/8 30/158/7 152/156/147
f 30/158/7 29/159/149 152/156/147
f 152/156/147 29/159/149 153/157/148
f 29/159/149 28/160/150 153/157/148
f 153/157/148 28/160/150 37/128/123
f 28/160/150 4/14/14 37/128/123
f 28/160/150 33/15/15 4/14/14
f 29/159/149 154/161/151 28/160/150
f 30/7/7 155/162/152 29/159/149
f 28/160/150 154/161/151 33/15/15
f 154/161/151 32/132/127 33/15/15
f 29/159/149 155/162/152 154/161/151
f 155/162/152 156/163/153 154/161/151
f 154/161/151 156/163/153 32/132/127
f 156/163/153 31/133/128 32/132/127
f 30/7/7 15/3/3 155/162/152
f 15/3/3 14/164/154 155/162/152
f 155/162/152 14/164/154 156/163/153
f 14/164/154 13/165/155 156/163/153
f 156/163/153 13/165/155 31/133/128
f 13/165/155 3/11/11 31/133/128
f 22/145/138 27/146/139 6/20/20
f 23/143/137 157/166/156 22/144/138
f 24/6/6 158/167/157 23/143/137
f 22/145/138 157/168/156 27/146/139
f 157/168/156 26/147/140 27/146/139
f 23/143/137 158/167/157 157/166/156
f 158/167/157 159/169/158 157/166/156
f 157/166/156 159/169/158 26/170/140
f 159/169/158 25/9/9 26/170/140
f 24/6/6 18/5/5 158/167/157
f 18/5/5 17/171/159 158/167/157
f 158/167/157 17/171/159 159/169/158
f 17/171/159 16/2/2 159/169/158
f 159/169/158 16/2/2 25/9/9
f 16/2/2 1/1/1 25/9/9
f 13/165/155 21/12/12 3/11/11
f 14/164/154 160/172/160 13/165/155
f 15/3/3 161/173/161 14/164/154
f 13/165/155 160/172/160 21/12/12
f 160/172/160 20/137/132 21/12/12
f 14/164/154 161/173/161 160/172/160
f 161/173/161 162/174/162 160/172/160
f 160/172/160 162/174/162 20/137/132
f 162/174/162 19/138/133 20/137/132
f 15/3/3 16/2/2 161/173/161
f 16/2/2 17/171/159 161/173/161
f 161/173/161 17/171/159 162/174/162
f 17/171/159 18/5/5 162/174/162
f 162/174/162 18/5/5 19/138/133
f 18/5/5 2/4/4 19/138/133
