# Blender v2.78 (sub 0) OBJ File: ''
# www.blender.org
mtllib Ball.mtl
v 0.000000 6.459866 0.000004
v 3.355821 5.506531 0.000004
v 1.036955 5.506533 -3.191610
v 5.709318 2.931377 0.000003
v 4.392938 3.432465 -3.191611
v 1.764323 2.931381 -5.429889
v -2.714946 5.506532 -1.972572
v -1.677990 3.432465 -5.164186
v -4.618903 2.931379 -3.355821
v -2.714946 5.506531 1.972581
v -5.429892 3.432462 0.000003
v -4.618903 2.931375 3.355824
v 1.036955 5.506529 3.191618
v -1.677990 3.432459 5.164193
v 1.764323 2.931374 5.429894
v 4.392938 3.432459 3.191617
v 6.070767 0.076638 1.972579
v 6.070767 0.076640 -1.972576
v 4.618903 -2.778101 3.355822
v 5.429892 -3.279183 -0.000001
v 4.618903 -2.778098 -3.355823
v 3.751901 0.076642 -5.164188
v 0.000000 0.076643 -6.383224
v 1.677990 -3.279180 -5.164190
v -1.764323 -2.778096 -5.429892
v -3.751901 0.076642 -5.164188
v -6.070767 0.076640 -1.972576
v -4.392938 -3.279182 -3.191614
v -5.709318 -2.778100 -0.000000
v -6.070767 0.076638 1.972579
v -3.751901 0.076636 5.164191
v -4.392938 -3.279185 3.191612
v -1.764323 -2.778102 5.429892
v 0.000000 0.076636 6.383227
v 3.751901 0.076636 5.164191
v 1.677990 -3.279185 5.164189
v 0.000000 -6.306588 -0.000002
v -1.036955 -5.353251 -3.191615
v 2.714946 -5.353251 -1.972578
v -3.355821 -5.353252 -0.000002
v -1.036955 -5.353254 3.191611
v 2.714946 -5.353253 1.972575
vt 0.5000 1.0159
vt 0.7852 0.9388
vt 0.5881 0.9388
vt 0.9851 0.7307
vt 0.8733 0.7712
vt 0.6499 0.7307
vt 0.2693 0.9388
vt 0.3574 0.7712
vt 0.1075 0.7307
vt 0.2693 0.9388
vt 0.0386 0.7712
vt 0.1075 0.7307
vt 0.5881 0.9388
vt 0.3574 0.7712
vt 0.6499 0.7307
vt 0.8733 0.7712
vt 1.0159 0.5000
vt 1.0159 0.5000
vt 0.8925 0.2693
vt 0.9614 0.2288
vt 0.8925 0.2693
vt 0.8188 0.5000
vt 0.5000 0.5000
vt 0.6426 0.2288
vt 0.3501 0.2693
vt 0.1812 0.5000
vt -0.0159 0.5000
vt 0.1267 0.2288
vt 0.0149 0.2693
vt -0.0159 0.5000
vt 0.1812 0.5000
vt 0.1267 0.2288
vt 0.3501 0.2693
vt 0.5000 0.5000
vt 0.8188 0.5000
vt 0.6426 0.2288
vt 0.5000 -0.0159
vt 0.4119 0.0612
vt 0.7307 0.0612
vt 0.2148 0.0612
vt 0.4119 0.0612
vt 0.7307 0.0612
vn 0.0000 1.0000 0.0000
vn 0.5257 0.8507 0.0000
vn 0.1625 0.8507 -0.5000
vn 0.8944 0.4472 0.0000
vn 0.6882 0.5257 -0.5000
vn 0.2764 0.4472 -0.8506
vn -0.4253 0.8507 -0.3090
vn -0.2629 0.5257 -0.8090
vn -0.7236 0.4472 -0.5257
vn -0.4253 0.8506 0.3090
vn -0.8507 0.5257 0.0000
vn -0.7236 0.4472 0.5257
vn 0.1625 0.8507 0.5000
vn -0.2629 0.5257 0.8090
vn 0.2764 0.4472 0.8506
vn 0.6882 0.5257 0.5000
vn 0.9511 -0.0000 0.3090
vn 0.9511 -0.0000 -0.3090
vn 0.7236 -0.4472 0.5257
vn 0.8507 -0.5257 -0.0000
vn 0.7236 -0.4472 -0.5257
vn 0.5878 -0.0000 -0.8090
vn -0.0000 0.0000 -1.0000
vn 0.2629 -0.5257 -0.8090
vn -0.2764 -0.4472 -0.8506
vn -0.5878 0.0000 -0.8090
vn -0.9511 0.0000 -0.3090
vn -0.6882 -0.5257 -0.5000
vn -0.8944 -0.4472 -0.0000
vn -0.9511 0.0000 0.3090
vn -0.5878 0.0000 0.8090
vn -0.6882 -0.5257 0.5000
vn -0.2764 -0.4472 0.8506
vn -0.0000 -0.0000 1.0000
vn 0.5878 -0.0000 0.8090
vn 0.2629 -0.5257 0.8090
vn -0.0000 -1.0000 -0.0000
vn -0.1625 -0.8507 -0.5000
vn 0.4253 -0.8506 -0.3090
vn -0.5257 -0.8507 -0.0000
vn -0.1625 -0.8507 0.5000
vn 0.4253 -0.8507 0.3090
usemtl Material__98
s 1
f 1/1/1 2/2/2 3/3/3
f 2/2/2 4/4/4 5/5/5
f 2/2/2 5/5/5 3/3/3
f 3/3/3 5/5/5 6/6/6
f 1/1/1 3/3/3 7/7/7
f 3/3/3 6/6/6 8/8/8
f 3/3/3 8/8/8 7/7/7
f 7/7/7 8/8/8 9/9/9
f 1/1/1 7/7/7 10/10/10
f 7/7/7 9/9/9 11/11/11
f 7/7/7 11/11/11 10/10/10
f 10/10/10 11/11/11 12/12/12
f 1/1/1 10/10/10 13/13/13
f 10/10/10 12/12/12 14/14/14
f 10/10/10 14/14/14 13/13/13
f 13/13/13 14/14/14 15/15/15
f 1/1/1 13/13/13 2/2/2
f 13/13/13 15/15/15 16/16/16
f 13/13/13 16/16/16 2/2/2
f 2/2/2 16/16/16 4/4/4
f 4/4/4 17/17/17 18/18/18
f 17/17/17 19/19/19 20/20/20
f 17/17/17 20/20/20 18/18/18
f 18/18/18 20/20/20 21/21/21
f 6/6/6 22/22/22 23/23/23
f 22/22/22 21/21/21 24/24/24
f 22/22/22 24/24/24 23/23/23
f 23/23/23 24/24/24 25/25/25
f 9/9/9 26/26/26 27/27/27
f 26/26/26 25/25/25 28/28/28
f 26/26/26 28/28/28 27/27/27
f 27/27/27 28/28/28 29/29/29
f 12/12/12 30/30/30 31/31/31
f 30/30/30 29/29/29 32/32/32
f 30/30/30 32/32/32 31/31/31
f 31/31/31 32/32/32 33/33/33
f 15/15/15 34/34/34 35/35/35
f 34/34/34 33/33/33 36/36/36
f 34/34/34 36/36/36 35/35/35
f 35/35/35 36/36/36 19/19/19
f 21/21/21 22/22/22 18/18/18
f 22/22/22 6/6/6 5/5/5
f 22/22/22 5/5/5 18/18/18
f 18/18/18 5/5/5 4/4/4
f 25/25/25 26/26/26 23/23/23
f 26/26/26 9/9/9 8/8/8
f 26/26/26 8/8/8 23/23/23
f 23/23/23 8/8/8 6/6/6
f 29/29/29 30/30/30 27/27/27
f 30/30/30 12/12/12 11/11/11
f 30/30/30 11/11/11 27/27/27
f 27/27/27 11/11/11 9/9/9
f 33/33/33 34/34/34 31/31/31
f 34/34/34 15/15/15 14/14/14
f 34/34/34 14/14/14 31/31/31
f 31/31/31 14/14/14 12/12/12
f 19/19/19 17/17/17 35/35/35
f 17/17/17 4/4/4 16/16/16
f 17/17/17 16/16/16 35/35/35
f 35/35/35 16/16/16 15/15/15
f 37/37/37 38/38/38 39/39/39
f 38/38/38 25/25/25 24/24/24
f 38/38/38 24/24/24 39/39/39
f 39/39/39 24/24/24 21/21/21
f 37/37/37 40/40/40 38/38/38
f 40/40/40 29/29/29 28/28/28
f 40/40/40 28/28/28 38/38/38
f 38/38/38 28/28/28 25/25/25
f 37/37/37 41/41/41 40/40/40
f 41/41/41 33/33/33 32/32/32
f 41/41/41 32/32/32 40/40/40
f 40/40/40 32/32/32 29/29/29
f 37/37/37 42/42/42 41/41/41
f 42/42/42 19/19/19 36/36/36
f 42/42/42 36/36/36 41/41/41
f 41/41/41 36/36/36 33/33/33
f 37/37/37 39/39/39 42/42/42
f 39/39/39 21/21/21 20/20/20
f 39/39/39 20/20/20 42/42/42
f 42/42/42 20/20/20 19/19/19
